<?xml version="1.0" encoding="utf-8"?>
<!-- Generator: Adobe Illustrator 17.0.0, SVG Export Plug-In . SVG Version: 6.00 Build 0)  -->
<!DOCTYPE svg PUBLIC "-//W3C//DTD SVG 1.1//EN" "http://www.w3.org/Graphics/SVG/1.1/DTD/svg11.dtd">
<svg version="1.1" id="openmudguard" xmlns="http://www.w3.org/2000/svg" xmlns:xlink="http://www.w3.org/1999/xlink" x="0px"
	 y="0px" width="595.28px" height="841.89px" viewBox="0 0 595.28 841.89" enable-background="new 0 0 595.28 841.89"
	 xml:space="preserve">
<g id="grid">
	<g id="_x35_mm">
		
			<line fill="none" stroke="#E6E6E6" stroke-width="0.5" stroke-linejoin="round" stroke-miterlimit="10" x1="141.735" y1="793.701" x2="453.545" y2="793.701"/>
		
			<line fill="none" stroke="#E6E6E6" stroke-width="0.5" stroke-linejoin="round" stroke-miterlimit="10" x1="141.735" y1="822.047" x2="453.545" y2="822.047"/>
		
			<line fill="none" stroke="#E6E6E6" stroke-width="0.5" stroke-linejoin="round" stroke-miterlimit="10" x1="141.735" y1="765.354" x2="453.545" y2="765.354"/>
		
			<line fill="none" stroke="#E6E6E6" stroke-width="0.5" stroke-linejoin="round" stroke-miterlimit="10" x1="141.735" y1="737.008" x2="453.545" y2="737.008"/>
		
			<line fill="none" stroke="#E6E6E6" stroke-width="0.5" stroke-linejoin="round" stroke-miterlimit="10" x1="141.735" y1="708.661" x2="453.545" y2="708.661"/>
		
			<line fill="none" stroke="#E6E6E6" stroke-width="0.5" stroke-linejoin="round" stroke-miterlimit="10" x1="141.735" y1="680.315" x2="453.545" y2="680.315"/>
		
			<line fill="none" stroke="#E6E6E6" stroke-width="0.5" stroke-linejoin="round" stroke-miterlimit="10" x1="141.735" y1="651.969" x2="453.545" y2="651.969"/>
		
			<line fill="none" stroke="#E6E6E6" stroke-width="0.5" stroke-linejoin="round" stroke-miterlimit="10" x1="141.735" y1="623.622" x2="453.545" y2="623.622"/>
		
			<line fill="none" stroke="#E6E6E6" stroke-width="0.5" stroke-linejoin="round" stroke-miterlimit="10" x1="141.735" y1="595.276" x2="453.545" y2="595.276"/>
		
			<line fill="none" stroke="#E6E6E6" stroke-width="0.5" stroke-linejoin="round" stroke-miterlimit="10" x1="141.735" y1="566.929" x2="453.545" y2="566.929"/>
		
			<line fill="none" stroke="#E6E6E6" stroke-width="0.5" stroke-linejoin="round" stroke-miterlimit="10" x1="141.735" y1="538.583" x2="453.545" y2="538.583"/>
		
			<line fill="none" stroke="#E6E6E6" stroke-width="0.5" stroke-linejoin="round" stroke-miterlimit="10" x1="141.735" y1="510.236" x2="453.545" y2="510.236"/>
		
			<line fill="none" stroke="#E6E6E6" stroke-width="0.5" stroke-linejoin="round" stroke-miterlimit="10" x1="141.735" y1="481.89" x2="453.545" y2="481.89"/>
		
			<line fill="none" stroke="#E6E6E6" stroke-width="0.5" stroke-linejoin="round" stroke-miterlimit="10" x1="141.735" y1="453.543" x2="453.545" y2="453.543"/>
		
			<line fill="none" stroke="#E6E6E6" stroke-width="0.5" stroke-linejoin="round" stroke-miterlimit="10" x1="141.735" y1="425.197" x2="453.545" y2="425.197"/>
		
			<line fill="none" stroke="#E6E6E6" stroke-width="0.5" stroke-linejoin="round" stroke-miterlimit="10" x1="141.735" y1="396.85" x2="453.545" y2="396.85"/>
		
			<line fill="none" stroke="#E6E6E6" stroke-width="0.5" stroke-linejoin="round" stroke-miterlimit="10" x1="141.735" y1="368.504" x2="453.545" y2="368.504"/>
		
			<line fill="none" stroke="#E6E6E6" stroke-width="0.5" stroke-linejoin="round" stroke-miterlimit="10" x1="141.735" y1="340.157" x2="453.545" y2="340.157"/>
		
			<line fill="none" stroke="#E6E6E6" stroke-width="0.5" stroke-linejoin="round" stroke-miterlimit="10" x1="141.735" y1="311.811" x2="453.545" y2="311.811"/>
		
			<line fill="none" stroke="#E6E6E6" stroke-width="0.5" stroke-linejoin="round" stroke-miterlimit="10" x1="141.735" y1="283.465" x2="453.545" y2="283.465"/>
		
			<line fill="none" stroke="#E6E6E6" stroke-width="0.5" stroke-linejoin="round" stroke-miterlimit="10" x1="141.735" y1="255.118" x2="453.545" y2="255.118"/>
		
			<line fill="none" stroke="#E6E6E6" stroke-width="0.5" stroke-linejoin="round" stroke-miterlimit="10" x1="141.735" y1="226.772" x2="453.545" y2="226.772"/>
		
			<line fill="none" stroke="#E6E6E6" stroke-width="0.5" stroke-linejoin="round" stroke-miterlimit="10" x1="141.735" y1="198.425" x2="453.545" y2="198.425"/>
		
			<line fill="none" stroke="#E6E6E6" stroke-width="0.5" stroke-linejoin="round" stroke-miterlimit="10" x1="141.735" y1="170.079" x2="453.545" y2="170.079"/>
		
			<line fill="none" stroke="#E6E6E6" stroke-width="0.5" stroke-linejoin="round" stroke-miterlimit="10" x1="141.735" y1="141.732" x2="453.545" y2="141.732"/>
		
			<line fill="none" stroke="#E6E6E6" stroke-width="0.5" stroke-linejoin="round" stroke-miterlimit="10" x1="141.735" y1="113.386" x2="453.545" y2="113.386"/>
		
			<line fill="none" stroke="#E6E6E6" stroke-width="0.5" stroke-linejoin="round" stroke-miterlimit="10" x1="141.735" y1="85.039" x2="453.545" y2="85.039"/>
		
			<line fill="none" stroke="#E6E6E6" stroke-width="0.5" stroke-linejoin="round" stroke-miterlimit="10" x1="141.735" y1="56.693" x2="453.545" y2="56.693"/>
		
			<line fill="none" stroke="#E6E6E6" stroke-width="0.5" stroke-linejoin="round" stroke-miterlimit="10" x1="141.735" y1="28.346" x2="453.545" y2="28.346"/>
		
			<line fill="none" stroke="#E6E6E6" stroke-width="0.5" stroke-linejoin="round" stroke-miterlimit="10" x1="425.2" y1="14.173" x2="425.2" y2="836.219"/>
		
			<line fill="none" stroke="#E6E6E6" stroke-width="0.5" stroke-linejoin="round" stroke-miterlimit="10" x1="396.853" y1="14.173" x2="396.853" y2="836.219"/>
		
			<line fill="none" stroke="#E6E6E6" stroke-width="0.5" stroke-linejoin="round" stroke-miterlimit="10" x1="368.507" y1="14.173" x2="368.507" y2="836.219"/>
		
			<line fill="none" stroke="#E6E6E6" stroke-width="0.5" stroke-linejoin="round" stroke-miterlimit="10" x1="340.16" y1="14.173" x2="340.16" y2="836.219"/>
		
			<line fill="none" stroke="#E6E6E6" stroke-width="0.5" stroke-linejoin="round" stroke-miterlimit="10" x1="311.814" y1="14.173" x2="311.814" y2="836.219"/>
		
			<line fill="none" stroke="#E6E6E6" stroke-width="0.5" stroke-linejoin="round" stroke-miterlimit="10" x1="283.467" y1="14.173" x2="283.467" y2="836.219"/>
		
			<line fill="none" stroke="#E6E6E6" stroke-width="0.5" stroke-linejoin="round" stroke-miterlimit="10" x1="255.121" y1="14.173" x2="255.121" y2="836.219"/>
		
			<line fill="none" stroke="#E6E6E6" stroke-width="0.5" stroke-linejoin="round" stroke-miterlimit="10" x1="226.774" y1="14.173" x2="226.774" y2="836.219"/>
		
			<line fill="none" stroke="#E6E6E6" stroke-width="0.5" stroke-linejoin="round" stroke-miterlimit="10" x1="198.428" y1="14.173" x2="198.428" y2="836.219"/>
		
			<line fill="none" stroke="#E6E6E6" stroke-width="0.5" stroke-linejoin="round" stroke-miterlimit="10" x1="170.081" y1="14.173" x2="170.081" y2="836.219"/>
	</g>
	<rect id="scale_1_" x="155.907" y="42.52" fill="#FFFFFF" width="28.347" height="28.347"/>
	<rect x="157.994" y="51.201" fill="none" width="24.266" height="8.64"/>
	<text id="scale" transform="matrix(1 0 0 1 158.1184 59.7928)" fill="#CCCCCC" font-family="'Arial-BoldMT'" font-size="12">1cm</text>
	<g id="_x31_cm">
		
			<line fill="none" stroke="#CCCCCC" stroke-linejoin="round" stroke-miterlimit="10" x1="127.561" y1="807.874" x2="467.719" y2="807.874"/>
		
			<line fill="none" stroke="#CCCCCC" stroke-linejoin="round" stroke-miterlimit="10" x1="127.561" y1="836.22" x2="467.719" y2="836.22"/>
		
			<line fill="none" stroke="#CCCCCC" stroke-linejoin="round" stroke-miterlimit="10" x1="127.561" y1="779.528" x2="467.719" y2="779.528"/>
		
			<line fill="none" stroke="#CCCCCC" stroke-linejoin="round" stroke-miterlimit="10" x1="127.561" y1="751.181" x2="467.719" y2="751.181"/>
		
			<line fill="none" stroke="#CCCCCC" stroke-linejoin="round" stroke-miterlimit="10" x1="127.561" y1="722.835" x2="467.719" y2="722.835"/>
		
			<line fill="none" stroke="#CCCCCC" stroke-linejoin="round" stroke-miterlimit="10" x1="127.561" y1="694.488" x2="467.719" y2="694.488"/>
		
			<line fill="none" stroke="#CCCCCC" stroke-linejoin="round" stroke-miterlimit="10" x1="127.561" y1="666.142" x2="467.719" y2="666.142"/>
		
			<line fill="none" stroke="#CCCCCC" stroke-linejoin="round" stroke-miterlimit="10" x1="127.561" y1="637.796" x2="467.719" y2="637.796"/>
		
			<line fill="none" stroke="#CCCCCC" stroke-linejoin="round" stroke-miterlimit="10" x1="127.561" y1="609.449" x2="467.719" y2="609.449"/>
		
			<line fill="none" stroke="#CCCCCC" stroke-linejoin="round" stroke-miterlimit="10" x1="127.561" y1="581.103" x2="467.719" y2="581.103"/>
		
			<line fill="none" stroke="#CCCCCC" stroke-linejoin="round" stroke-miterlimit="10" x1="127.561" y1="552.756" x2="467.719" y2="552.756"/>
		
			<line fill="none" stroke="#CCCCCC" stroke-linejoin="round" stroke-miterlimit="10" x1="127.561" y1="524.41" x2="467.719" y2="524.41"/>
		
			<line fill="none" stroke="#CCCCCC" stroke-linejoin="round" stroke-miterlimit="10" x1="127.561" y1="496.063" x2="467.719" y2="496.063"/>
		
			<line fill="none" stroke="#CCCCCC" stroke-linejoin="round" stroke-miterlimit="10" x1="127.561" y1="467.717" x2="467.719" y2="467.717"/>
		
			<line fill="none" stroke="#CCCCCC" stroke-linejoin="round" stroke-miterlimit="10" x1="127.561" y1="439.37" x2="467.719" y2="439.37"/>
		
			<line fill="none" stroke="#CCCCCC" stroke-linejoin="round" stroke-miterlimit="10" x1="127.561" y1="411.024" x2="467.719" y2="411.024"/>
		
			<line fill="none" stroke="#CCCCCC" stroke-linejoin="round" stroke-miterlimit="10" x1="127.561" y1="382.677" x2="467.719" y2="382.677"/>
		
			<line fill="none" stroke="#CCCCCC" stroke-linejoin="round" stroke-miterlimit="10" x1="127.561" y1="354.331" x2="467.719" y2="354.331"/>
		
			<line fill="none" stroke="#CCCCCC" stroke-linejoin="round" stroke-miterlimit="10" x1="127.561" y1="325.984" x2="467.719" y2="325.984"/>
		
			<line fill="none" stroke="#CCCCCC" stroke-linejoin="round" stroke-miterlimit="10" x1="127.561" y1="297.638" x2="467.719" y2="297.638"/>
		
			<line fill="none" stroke="#CCCCCC" stroke-linejoin="round" stroke-miterlimit="10" x1="127.561" y1="269.292" x2="467.719" y2="269.292"/>
		
			<line fill="none" stroke="#CCCCCC" stroke-linejoin="round" stroke-miterlimit="10" x1="127.561" y1="240.945" x2="467.719" y2="240.945"/>
		
			<line fill="none" stroke="#CCCCCC" stroke-linejoin="round" stroke-miterlimit="10" x1="127.561" y1="212.599" x2="467.719" y2="212.599"/>
		
			<line fill="none" stroke="#CCCCCC" stroke-linejoin="round" stroke-miterlimit="10" x1="127.561" y1="184.252" x2="467.719" y2="184.252"/>
		
			<line fill="none" stroke="#CCCCCC" stroke-linejoin="round" stroke-miterlimit="10" x1="127.561" y1="155.906" x2="467.719" y2="155.906"/>
		
			<line fill="none" stroke="#CCCCCC" stroke-linejoin="round" stroke-miterlimit="10" x1="127.561" y1="127.559" x2="467.719" y2="127.559"/>
		
			<line fill="none" stroke="#CCCCCC" stroke-linejoin="round" stroke-miterlimit="10" x1="127.561" y1="99.213" x2="467.719" y2="99.213"/>
		
			<line fill="none" stroke="#CCCCCC" stroke-linejoin="round" stroke-miterlimit="10" x1="127.561" y1="70.866" x2="467.719" y2="70.866"/>
		
			<line fill="none" stroke="#CCCCCC" stroke-linejoin="round" stroke-miterlimit="10" x1="127.561" y1="42.52" x2="467.719" y2="42.52"/>
		
			<line fill="none" stroke="#CCCCCC" stroke-linejoin="round" stroke-miterlimit="10" x1="127.561" y1="14.173" x2="467.719" y2="14.173"/>
		
			<line fill="none" stroke="#CCCCCC" stroke-linejoin="round" stroke-miterlimit="10" x1="439.372" y1="0" x2="439.372" y2="836.225"/>
		
			<line fill="none" stroke="#CCCCCC" stroke-linejoin="round" stroke-miterlimit="10" x1="411.026" y1="0" x2="411.026" y2="836.225"/>
		
			<line fill="none" stroke="#CCCCCC" stroke-linejoin="round" stroke-miterlimit="10" x1="382.68" y1="0" x2="382.68" y2="836.225"/>
		
			<line fill="none" stroke="#CCCCCC" stroke-linejoin="round" stroke-miterlimit="10" x1="354.333" y1="0" x2="354.333" y2="836.225"/>
		
			<line fill="none" stroke="#CCCCCC" stroke-linejoin="round" stroke-miterlimit="10" x1="325.987" y1="0" x2="325.987" y2="836.225"/>
		
			<line fill="none" stroke="#CCCCCC" stroke-linejoin="round" stroke-miterlimit="10" x1="297.641" y1="0" x2="297.641" y2="836.225"/>
		
			<line fill="none" stroke="#CCCCCC" stroke-linejoin="round" stroke-miterlimit="10" x1="269.293" y1="0" x2="269.293" y2="836.225"/>
		
			<line fill="none" stroke="#CCCCCC" stroke-linejoin="round" stroke-miterlimit="10" x1="240.947" y1="0" x2="240.947" y2="836.225"/>
		<line fill="none" stroke="#CCCCCC" stroke-linejoin="round" stroke-miterlimit="10" x1="212.6" y1="0" x2="212.6" y2="836.225"/>
		
			<line fill="none" stroke="#CCCCCC" stroke-linejoin="round" stroke-miterlimit="10" x1="184.255" y1="0" x2="184.255" y2="836.225"/>
		
			<line fill="none" stroke="#CCCCCC" stroke-linejoin="round" stroke-miterlimit="10" x1="155.908" y1="0" x2="155.908" y2="836.225"/>
	</g>
</g>
<g id="a4">
	
		<line fill="none" stroke="#CCCCCC" stroke-linejoin="round" stroke-miterlimit="10" x1="0.567" y1="0.567" x2="14.173" y2="14.173"/>
	
		<line fill="none" stroke="#CCCCCC" stroke-linejoin="round" stroke-miterlimit="10" x1="594.713" y1="0.567" x2="581.107" y2="14.173"/>
	
		<line fill="none" stroke="#CCCCCC" stroke-linejoin="round" stroke-miterlimit="10" x1="0.567" y1="841.323" x2="14.173" y2="827.717"/>
	
		<line fill="none" stroke="#CCCCCC" stroke-linejoin="round" stroke-miterlimit="10" x1="594.713" y1="841.323" x2="581.107" y2="827.717"/>
	<g id="frame">
		<path fill="#CCCCCC" d="M594.28,1v839.89H1V1H594.28 M595.28,0H0v841.89h595.28V0L595.28,0z"/>
	</g>
</g>
<g id="cut">
	<g opacity="0.5">
		<path fill="#E8471E" d="M199.4,792.938l-14.157-382.234l-28.335-42.503v-27.692l56.626-70.783l14.24-71.202V86.04h14.173v-23.26
			l-14.173,0V43.197L297.64,15.25l69.866,27.946v19.583h-14.173v23.26h14.173v112.485l14.241,71.202l56.625,70.783v27.692
			l-28.336,42.503L395.88,792.938l-98.24,28.068L199.4,792.938z M274.966,177.166l22.674,22.674l22.673-22.674l-22.673-22.674
			L274.966,177.166z"/>
	</g>
	<path fill="#E8471E" d="M297.64,16.327l68.866,27.546V61.78h-12.173h-2v2v21.26v2h2h12.173v111.386v0.198l0.039,0.194
		l14.173,70.866l0.095,0.477l0.304,0.38l56.255,70.318v27.039l-28.011,42.016l-0.314,0.47l-0.021,0.565l-14.12,381.227
		l-97.267,27.791l-97.268-27.791l-14.12-381.227l-0.021-0.565l-0.314-0.47l-28.011-42.016v-27.039l56.255-70.318l0.304-0.38
		l0.095-0.477l14.173-70.866l0.039-0.194v-0.198V87.039h12.173h2v-2V63.78v-2h-2l-12.173,0V43.874L297.64,16.327 M297.64,201.254
		l1.414-1.414l21.26-21.26l1.414-1.414l-1.414-1.414l-21.26-21.26l-1.414-1.414l-1.414,1.414l-21.26,21.26l-1.414,1.414l1.414,1.414
		l21.26,21.26L297.64,201.254 M297.64,14.173L226.774,42.52v21.26l14.173,0v21.26h-14.173v113.386l-14.173,70.866l-56.693,70.866
		v28.346l28.346,42.52l14.173,382.677l99.213,28.347l99.212-28.347l14.173-382.677l28.346-42.52v-28.346l-56.693-70.866
		l-14.173-70.866V85.039h-14.173V63.78h14.173V42.52L297.64,14.173L297.64,14.173z M297.64,198.425l-21.26-21.26l21.26-21.26
		l21.26,21.26L297.64,198.425L297.64,198.425z"/>
</g>
<g id="fold">
	<g>
		<path fill="none" stroke="#E8471E" stroke-width="2" stroke-miterlimit="10" stroke-dasharray="4,3" d="M226.774,98.605
			c12.005,2.153,22.746,8.489,30.972,17.616c10.26,11.384,24.435,18.425,40.092,18.425s29.831-7.041,40.092-18.425
			c8.135-9.026,18.732-15.323,30.577-17.543"/>
		
			<line fill="none" stroke="#E8471E" stroke-width="2" stroke-miterlimit="10" stroke-dasharray="4,3" x1="255.12" y1="297.643" x2="255.12" y2="538.583"/>
		
			<line fill="none" stroke="#E8471E" stroke-width="2" stroke-miterlimit="10" stroke-dasharray="4,3" x1="340.16" y1="297.638" x2="340.16" y2="538.583"/>
		
			<line fill="none" stroke="#E8471E" stroke-width="2" stroke-miterlimit="10" stroke-dasharray="4,3" x1="297.638" y1="552.756" x2="297.638" y2="822.047"/>
	</g>
</g>
</svg>
