<?xml version="1.0" encoding="utf-8"?>
<!-- Generator: Adobe Illustrator 17.0.0, SVG Export Plug-In . SVG Version: 6.00 Build 0)  -->
<!DOCTYPE svg PUBLIC "-//W3C//DTD SVG 1.1//EN" "http://www.w3.org/Graphics/SVG/1.1/DTD/svg11.dtd">
<svg version="1.1" id="openmudguard" xmlns="http://www.w3.org/2000/svg" xmlns:xlink="http://www.w3.org/1999/xlink" x="0px"
	 y="0px" width="340.16px" height="1133.858px" viewBox="0 0 340.16 1133.858" enable-background="new 0 0 340.16 1133.858"
	 xml:space="preserve">
<g id="grid">
	<g id="_x35_mm">
		
			<line fill="none" stroke="#E6E6E6" stroke-width="0.5" stroke-linejoin="round" stroke-miterlimit="10" x1="14.173" y1="1062.992" x2="325.984" y2="1062.992"/>
		
			<line fill="none" stroke="#E6E6E6" stroke-width="0.5" stroke-linejoin="round" stroke-miterlimit="10" x1="14.173" y1="1091.339" x2="325.984" y2="1091.339"/>
		
			<line fill="none" stroke="#E6E6E6" stroke-width="0.5" stroke-linejoin="round" stroke-miterlimit="10" x1="14.173" y1="1034.645" x2="325.984" y2="1034.645"/>
		
			<line fill="none" stroke="#E6E6E6" stroke-width="0.5" stroke-linejoin="round" stroke-miterlimit="10" x1="14.173" y1="1006.299" x2="325.984" y2="1006.299"/>
		
			<line fill="none" stroke="#E6E6E6" stroke-width="0.5" stroke-linejoin="round" stroke-miterlimit="10" x1="14.173" y1="977.953" x2="325.984" y2="977.953"/>
		
			<line fill="none" stroke="#E6E6E6" stroke-width="0.5" stroke-linejoin="round" stroke-miterlimit="10" x1="14.173" y1="949.606" x2="325.984" y2="949.606"/>
		
			<line fill="none" stroke="#E6E6E6" stroke-width="0.5" stroke-linejoin="round" stroke-miterlimit="10" x1="14.173" y1="921.26" x2="325.984" y2="921.26"/>
		
			<line fill="none" stroke="#E6E6E6" stroke-width="0.5" stroke-linejoin="round" stroke-miterlimit="10" x1="14.173" y1="892.913" x2="325.984" y2="892.913"/>
		
			<line fill="none" stroke="#E6E6E6" stroke-width="0.5" stroke-linejoin="round" stroke-miterlimit="10" x1="14.173" y1="864.567" x2="325.984" y2="864.567"/>
		
			<line fill="none" stroke="#E6E6E6" stroke-width="0.5" stroke-linejoin="round" stroke-miterlimit="10" x1="14.173" y1="836.22" x2="325.984" y2="836.22"/>
		
			<line fill="none" stroke="#E6E6E6" stroke-width="0.5" stroke-linejoin="round" stroke-miterlimit="10" x1="14.173" y1="807.874" x2="325.984" y2="807.874"/>
		
			<line fill="none" stroke="#E6E6E6" stroke-width="0.5" stroke-linejoin="round" stroke-miterlimit="10" x1="14.173" y1="779.527" x2="325.984" y2="779.527"/>
		
			<line fill="none" stroke="#E6E6E6" stroke-width="0.5" stroke-linejoin="round" stroke-miterlimit="10" x1="14.173" y1="751.181" x2="325.984" y2="751.181"/>
		
			<line fill="none" stroke="#E6E6E6" stroke-width="0.5" stroke-linejoin="round" stroke-miterlimit="10" x1="14.173" y1="722.834" x2="325.984" y2="722.834"/>
		
			<line fill="none" stroke="#E6E6E6" stroke-width="0.5" stroke-linejoin="round" stroke-miterlimit="10" x1="14.173" y1="694.488" x2="325.984" y2="694.488"/>
		
			<line fill="none" stroke="#E6E6E6" stroke-width="0.5" stroke-linejoin="round" stroke-miterlimit="10" x1="14.173" y1="666.142" x2="325.984" y2="666.142"/>
		
			<line fill="none" stroke="#E6E6E6" stroke-width="0.5" stroke-linejoin="round" stroke-miterlimit="10" x1="14.173" y1="637.795" x2="325.984" y2="637.795"/>
		
			<line fill="none" stroke="#E6E6E6" stroke-width="0.5" stroke-linejoin="round" stroke-miterlimit="10" x1="14.173" y1="609.449" x2="325.984" y2="609.449"/>
		
			<line fill="none" stroke="#E6E6E6" stroke-width="0.5" stroke-linejoin="round" stroke-miterlimit="10" x1="14.173" y1="581.102" x2="325.984" y2="581.102"/>
		
			<line fill="none" stroke="#E6E6E6" stroke-width="0.5" stroke-linejoin="round" stroke-miterlimit="10" x1="14.173" y1="552.756" x2="325.984" y2="552.756"/>
		
			<line fill="none" stroke="#E6E6E6" stroke-width="0.5" stroke-linejoin="round" stroke-miterlimit="10" x1="14.173" y1="524.409" x2="325.984" y2="524.409"/>
		
			<line fill="none" stroke="#E6E6E6" stroke-width="0.5" stroke-linejoin="round" stroke-miterlimit="10" x1="14.173" y1="496.063" x2="325.984" y2="496.063"/>
		
			<line fill="none" stroke="#E6E6E6" stroke-width="0.5" stroke-linejoin="round" stroke-miterlimit="10" x1="14.173" y1="467.716" x2="325.984" y2="467.716"/>
		
			<line fill="none" stroke="#E6E6E6" stroke-width="0.5" stroke-linejoin="round" stroke-miterlimit="10" x1="14.173" y1="439.37" x2="325.984" y2="439.37"/>
		
			<line fill="none" stroke="#E6E6E6" stroke-width="0.5" stroke-linejoin="round" stroke-miterlimit="10" x1="14.173" y1="411.023" x2="325.984" y2="411.023"/>
		
			<line fill="none" stroke="#E6E6E6" stroke-width="0.5" stroke-linejoin="round" stroke-miterlimit="10" x1="14.173" y1="382.677" x2="325.984" y2="382.677"/>
		
			<line fill="none" stroke="#E6E6E6" stroke-width="0.5" stroke-linejoin="round" stroke-miterlimit="10" x1="14.173" y1="354.33" x2="325.984" y2="354.33"/>
		
			<line fill="none" stroke="#E6E6E6" stroke-width="0.5" stroke-linejoin="round" stroke-miterlimit="10" x1="14.173" y1="325.984" x2="325.984" y2="325.984"/>
		
			<line fill="none" stroke="#E6E6E6" stroke-width="0.5" stroke-linejoin="round" stroke-miterlimit="10" x1="14.173" y1="297.638" x2="325.984" y2="297.638"/>
		
			<line fill="none" stroke="#E6E6E6" stroke-width="0.5" stroke-linejoin="round" stroke-miterlimit="10" x1="14.173" y1="269.291" x2="325.984" y2="269.291"/>
		
			<line fill="none" stroke="#E6E6E6" stroke-width="0.5" stroke-linejoin="round" stroke-miterlimit="10" x1="14.173" y1="240.945" x2="325.984" y2="240.945"/>
		
			<line fill="none" stroke="#E6E6E6" stroke-width="0.5" stroke-linejoin="round" stroke-miterlimit="10" x1="14.173" y1="212.598" x2="325.984" y2="212.598"/>
		
			<line fill="none" stroke="#E6E6E6" stroke-width="0.5" stroke-linejoin="round" stroke-miterlimit="10" x1="14.173" y1="184.252" x2="325.984" y2="184.252"/>
		
			<line fill="none" stroke="#E6E6E6" stroke-width="0.5" stroke-linejoin="round" stroke-miterlimit="10" x1="14.173" y1="155.905" x2="325.984" y2="155.905"/>
		
			<line fill="none" stroke="#E6E6E6" stroke-width="0.5" stroke-linejoin="round" stroke-miterlimit="10" x1="14.173" y1="127.559" x2="325.984" y2="127.559"/>
		
			<line fill="none" stroke="#E6E6E6" stroke-width="0.5" stroke-linejoin="round" stroke-miterlimit="10" x1="14.173" y1="99.212" x2="325.984" y2="99.212"/>
		
			<line fill="none" stroke="#E6E6E6" stroke-width="0.5" stroke-linejoin="round" stroke-miterlimit="10" x1="14.173" y1="70.866" x2="325.984" y2="70.866"/>
		
			<line fill="none" stroke="#E6E6E6" stroke-width="0.5" stroke-linejoin="round" stroke-miterlimit="10" x1="14.173" y1="42.519" x2="325.984" y2="42.519"/>
		
			<line fill="none" stroke="#E6E6E6" stroke-width="0.5" stroke-linejoin="round" stroke-miterlimit="10" x1="297.638" y1="14.173" x2="297.638" y2="1119.683"/>
		
			<line fill="none" stroke="#E6E6E6" stroke-width="0.5" stroke-linejoin="round" stroke-miterlimit="10" x1="269.291" y1="14.173" x2="269.291" y2="1119.683"/>
		
			<line fill="none" stroke="#E6E6E6" stroke-width="0.5" stroke-linejoin="round" stroke-miterlimit="10" x1="240.945" y1="14.173" x2="240.945" y2="1119.683"/>
		
			<line fill="none" stroke="#E6E6E6" stroke-width="0.5" stroke-linejoin="round" stroke-miterlimit="10" x1="212.598" y1="14.173" x2="212.598" y2="1119.683"/>
		
			<line fill="none" stroke="#E6E6E6" stroke-width="0.5" stroke-linejoin="round" stroke-miterlimit="10" x1="184.252" y1="14.173" x2="184.252" y2="1119.683"/>
		
			<line fill="none" stroke="#E6E6E6" stroke-width="0.5" stroke-linejoin="round" stroke-miterlimit="10" x1="155.905" y1="14.173" x2="155.905" y2="1119.683"/>
		
			<line fill="none" stroke="#E6E6E6" stroke-width="0.5" stroke-linejoin="round" stroke-miterlimit="10" x1="127.559" y1="14.173" x2="127.559" y2="1119.683"/>
		
			<line fill="none" stroke="#E6E6E6" stroke-width="0.5" stroke-linejoin="round" stroke-miterlimit="10" x1="99.212" y1="14.173" x2="99.212" y2="1119.683"/>
		
			<line fill="none" stroke="#E6E6E6" stroke-width="0.5" stroke-linejoin="round" stroke-miterlimit="10" x1="70.866" y1="14.173" x2="70.866" y2="1119.683"/>
		
			<line fill="none" stroke="#E6E6E6" stroke-width="0.5" stroke-linejoin="round" stroke-miterlimit="10" x1="42.519" y1="14.173" x2="42.519" y2="1119.683"/>
	</g>
	<rect id="scale_1_" x="28.346" y="28.346" fill="#FFFFFF" width="28.347" height="28.347"/>
	<rect x="30.433" y="37.028" fill="none" width="24.266" height="8.64"/>
	<text id="scale" transform="matrix(1 0 0 1 30.5569 45.6196)" fill="#CCCCCC" font-family="'Arial-BoldMT'" font-size="12">1cm</text>
	<g id="_x31_cm">
		
			<line fill="none" stroke="#CCCCCC" stroke-linejoin="round" stroke-miterlimit="10" x1="0" y1="1077.165" x2="340.157" y2="1077.165"/>
		
			<line fill="none" stroke="#CCCCCC" stroke-linejoin="round" stroke-miterlimit="10" x1="0" y1="1105.511" x2="340.157" y2="1105.511"/>
		
			<line fill="none" stroke="#CCCCCC" stroke-linejoin="round" stroke-miterlimit="10" x1="0" y1="1048.819" x2="340.157" y2="1048.819"/>
		
			<line fill="none" stroke="#CCCCCC" stroke-linejoin="round" stroke-miterlimit="10" x1="0" y1="1020.472" x2="340.157" y2="1020.472"/>
		
			<line fill="none" stroke="#CCCCCC" stroke-linejoin="round" stroke-miterlimit="10" x1="0" y1="992.126" x2="340.157" y2="992.126"/>
		
			<line fill="none" stroke="#CCCCCC" stroke-linejoin="round" stroke-miterlimit="10" x1="0" y1="963.78" x2="340.157" y2="963.78"/>
		
			<line fill="none" stroke="#CCCCCC" stroke-linejoin="round" stroke-miterlimit="10" x1="0" y1="935.433" x2="340.157" y2="935.433"/>
		
			<line fill="none" stroke="#CCCCCC" stroke-linejoin="round" stroke-miterlimit="10" x1="0" y1="907.087" x2="340.157" y2="907.087"/>
		
			<line fill="none" stroke="#CCCCCC" stroke-linejoin="round" stroke-miterlimit="10" x1="0" y1="878.74" x2="340.157" y2="878.74"/>
		
			<line fill="none" stroke="#CCCCCC" stroke-linejoin="round" stroke-miterlimit="10" x1="0" y1="850.394" x2="340.157" y2="850.394"/>
		
			<line fill="none" stroke="#CCCCCC" stroke-linejoin="round" stroke-miterlimit="10" x1="0" y1="822.047" x2="340.157" y2="822.047"/>
		
			<line fill="none" stroke="#CCCCCC" stroke-linejoin="round" stroke-miterlimit="10" x1="0" y1="793.701" x2="340.157" y2="793.701"/>
		
			<line fill="none" stroke="#CCCCCC" stroke-linejoin="round" stroke-miterlimit="10" x1="0" y1="765.354" x2="340.157" y2="765.354"/>
		
			<line fill="none" stroke="#CCCCCC" stroke-linejoin="round" stroke-miterlimit="10" x1="0" y1="737.008" x2="340.157" y2="737.008"/>
		
			<line fill="none" stroke="#CCCCCC" stroke-linejoin="round" stroke-miterlimit="10" x1="0" y1="708.661" x2="340.157" y2="708.661"/>
		
			<line fill="none" stroke="#CCCCCC" stroke-linejoin="round" stroke-miterlimit="10" x1="0" y1="680.315" x2="340.157" y2="680.315"/>
		
			<line fill="none" stroke="#CCCCCC" stroke-linejoin="round" stroke-miterlimit="10" x1="0" y1="651.969" x2="340.157" y2="651.969"/>
		
			<line fill="none" stroke="#CCCCCC" stroke-linejoin="round" stroke-miterlimit="10" x1="0" y1="623.622" x2="340.157" y2="623.622"/>
		
			<line fill="none" stroke="#CCCCCC" stroke-linejoin="round" stroke-miterlimit="10" x1="0" y1="595.276" x2="340.157" y2="595.276"/>
		
			<line fill="none" stroke="#CCCCCC" stroke-linejoin="round" stroke-miterlimit="10" x1="0" y1="566.929" x2="340.157" y2="566.929"/>
		
			<line fill="none" stroke="#CCCCCC" stroke-linejoin="round" stroke-miterlimit="10" x1="0" y1="538.583" x2="340.157" y2="538.583"/>
		
			<line fill="none" stroke="#CCCCCC" stroke-linejoin="round" stroke-miterlimit="10" x1="0" y1="510.236" x2="340.157" y2="510.236"/>
		
			<line fill="none" stroke="#CCCCCC" stroke-linejoin="round" stroke-miterlimit="10" x1="0" y1="481.89" x2="340.157" y2="481.89"/>
		
			<line fill="none" stroke="#CCCCCC" stroke-linejoin="round" stroke-miterlimit="10" x1="0" y1="453.543" x2="340.157" y2="453.543"/>
		
			<line fill="none" stroke="#CCCCCC" stroke-linejoin="round" stroke-miterlimit="10" x1="0" y1="425.197" x2="340.157" y2="425.197"/>
		
			<line fill="none" stroke="#CCCCCC" stroke-linejoin="round" stroke-miterlimit="10" x1="0" y1="396.85" x2="340.157" y2="396.85"/>
		
			<line fill="none" stroke="#CCCCCC" stroke-linejoin="round" stroke-miterlimit="10" x1="0" y1="368.504" x2="340.157" y2="368.504"/>
		
			<line fill="none" stroke="#CCCCCC" stroke-linejoin="round" stroke-miterlimit="10" x1="0" y1="340.157" x2="340.157" y2="340.157"/>
		
			<line fill="none" stroke="#CCCCCC" stroke-linejoin="round" stroke-miterlimit="10" x1="0" y1="311.811" x2="340.157" y2="311.811"/>
		
			<line fill="none" stroke="#CCCCCC" stroke-linejoin="round" stroke-miterlimit="10" x1="0" y1="283.465" x2="340.157" y2="283.465"/>
		
			<line fill="none" stroke="#CCCCCC" stroke-linejoin="round" stroke-miterlimit="10" x1="0" y1="255.118" x2="340.157" y2="255.118"/>
		
			<line fill="none" stroke="#CCCCCC" stroke-linejoin="round" stroke-miterlimit="10" x1="0" y1="226.772" x2="340.157" y2="226.772"/>
		
			<line fill="none" stroke="#CCCCCC" stroke-linejoin="round" stroke-miterlimit="10" x1="0" y1="198.425" x2="340.157" y2="198.425"/>
		
			<line fill="none" stroke="#CCCCCC" stroke-linejoin="round" stroke-miterlimit="10" x1="0" y1="170.079" x2="340.157" y2="170.079"/>
		
			<line fill="none" stroke="#CCCCCC" stroke-linejoin="round" stroke-miterlimit="10" x1="0" y1="141.732" x2="340.157" y2="141.732"/>
		
			<line fill="none" stroke="#CCCCCC" stroke-linejoin="round" stroke-miterlimit="10" x1="0" y1="113.386" x2="340.157" y2="113.386"/>
		
			<line fill="none" stroke="#CCCCCC" stroke-linejoin="round" stroke-miterlimit="10" x1="0" y1="85.039" x2="340.157" y2="85.039"/>
		
			<line fill="none" stroke="#CCCCCC" stroke-linejoin="round" stroke-miterlimit="10" x1="0" y1="56.693" x2="340.157" y2="56.693"/>
		
			<line fill="none" stroke="#CCCCCC" stroke-linejoin="round" stroke-miterlimit="10" x1="0" y1="28.346" x2="340.157" y2="28.346"/>
		
			<line fill="none" stroke="#CCCCCC" stroke-linejoin="round" stroke-miterlimit="10" x1="311.811" y1="0" x2="311.811" y2="1133.862"/>
		
			<line fill="none" stroke="#CCCCCC" stroke-linejoin="round" stroke-miterlimit="10" x1="283.465" y1="0" x2="283.465" y2="1133.862"/>
		
			<line fill="none" stroke="#CCCCCC" stroke-linejoin="round" stroke-miterlimit="10" x1="255.118" y1="0" x2="255.118" y2="1133.862"/>
		
			<line fill="none" stroke="#CCCCCC" stroke-linejoin="round" stroke-miterlimit="10" x1="226.772" y1="0" x2="226.772" y2="1133.862"/>
		
			<line fill="none" stroke="#CCCCCC" stroke-linejoin="round" stroke-miterlimit="10" x1="198.425" y1="0" x2="198.425" y2="1133.862"/>
		
			<line fill="none" stroke="#CCCCCC" stroke-linejoin="round" stroke-miterlimit="10" x1="170.079" y1="0" x2="170.079" y2="1133.862"/>
		
			<line fill="none" stroke="#CCCCCC" stroke-linejoin="round" stroke-miterlimit="10" x1="141.732" y1="0" x2="141.732" y2="1133.862"/>
		
			<line fill="none" stroke="#CCCCCC" stroke-linejoin="round" stroke-miterlimit="10" x1="113.386" y1="0" x2="113.386" y2="1133.862"/>
		
			<line fill="none" stroke="#CCCCCC" stroke-linejoin="round" stroke-miterlimit="10" x1="85.039" y1="0" x2="85.039" y2="1133.862"/>
		
			<line fill="none" stroke="#CCCCCC" stroke-linejoin="round" stroke-miterlimit="10" x1="56.693" y1="0" x2="56.693" y2="1133.862"/>
		
			<line fill="none" stroke="#CCCCCC" stroke-linejoin="round" stroke-miterlimit="10" x1="28.346" y1="0" x2="28.346" y2="1133.862"/>
	</g>
</g>
<g id="cut">
	<g opacity="0.5">
		<path fill="#FF4000" d="M86.009,1076.434L57.68,424.875l-28.333-42.5v-27.693l56.625-70.783l14.241-71.202V100.213h14.173v-23.26
			l-14.173,0V57.37l69.866-27.947l69.867,27.947v19.583h-14.174v23.26h14.174v112.485l14.24,71.202l56.626,70.783v27.693
			l-28.334,42.5l-28.328,651.559l-84.071,28.024L86.009,1076.434z M147.405,191.339l22.674,22.674l22.674-22.674l-22.674-22.674
			L147.405,191.339z"/>
	</g>
	<path fill="#FF4000" d="M170.079,30.5l68.866,27.547v17.906h-12.173h-2v2v21.26v2h2h12.173v111.386v0.198l0.039,0.194
		l14.173,70.866l0.095,0.477l0.304,0.38l56.255,70.318v27.039L281.8,424.087l-0.31,0.465l-0.024,0.558l-28.287,650.593l-83.101,27.7
		l-83.101-27.7L58.691,425.11l-0.024-0.558l-0.31-0.465l-28.011-42.016v-27.039l56.255-70.318l0.304-0.38L87,283.857l14.173-70.866
		l0.039-0.194v-0.198V101.213h12.173h2v-2v-21.26v-2h-2l-12.173,0V58.047L170.079,30.5 M170.079,215.427l1.414-1.414l21.26-21.26
		l1.414-1.414l-1.414-1.414l-21.26-21.26l-1.414-1.414l-1.414,1.414l-21.26,21.26l-1.414,1.414l1.414,1.414l21.26,21.26
		L170.079,215.427 M170.079,28.346L99.213,56.693v21.26l14.173,0v21.26H99.213v113.386l-14.173,70.866l-56.693,70.866v28.346
		l28.346,42.52l28.346,651.969l85.039,28.346l85.039-28.346l28.346-651.969l28.346-42.52v-28.346l-56.693-70.866l-14.173-70.866
		V99.213h-14.173v-21.26h14.173v-21.26L170.079,28.346L170.079,28.346z M170.079,212.598l-21.26-21.26l21.26-21.26l21.26,21.26
		L170.079,212.598L170.079,212.598z"/>
</g>
<g id="fold">
	<g>
		<path fill="none" stroke="#FF4000" stroke-width="2" stroke-miterlimit="10" stroke-dasharray="4,3" d="M99.213,112.778
			c12.005,2.153,22.746,8.489,30.972,17.616c10.26,11.384,24.435,18.425,40.092,18.425s29.831-7.041,40.092-18.425
			c8.135-9.026,18.732-15.323,30.577-17.543"/>
		
			<line fill="none" stroke="#FF4000" stroke-width="2" stroke-miterlimit="10" stroke-dasharray="4,3" x1="127.559" y1="311.816" x2="127.559" y2="552.756"/>
		
			<line fill="none" stroke="#FF4000" stroke-width="2" stroke-miterlimit="10" stroke-dasharray="4,3" x1="212.599" y1="311.811" x2="212.599" y2="552.756"/>
		
			<line fill="none" stroke="#FF4000" stroke-width="2" stroke-miterlimit="10" stroke-dasharray="4,3" x1="170.079" y1="552.756" x2="170.079" y2="1105.512"/>
	</g>
</g>
</svg>
